# Blender v2.80 (sub 75) OBJ File: ''
# www.blender.org
v -1.200000 -0.000000 1.800000
v -2.482843 -0.000000 1.800000
v 0.000000 -0.000001 4.282843
v 2.482843 -0.000000 1.800000
v 1.200000 -0.000000 1.800000
v 1.200000 0.000000 -2.200000
v -1.200000 0.000000 -2.200000
vt 0.000000 0.000000
vt 0.000000 0.000000
vt 0.000000 0.000000
vt 0.000000 0.000000
vt 0.000000 0.000000
vt 0.000000 0.000000
vt 0.000000 0.000000
vn 0.0000 1.0000 0.0000
s off
f 1/1/1 3/2/1 5/3/1
f 6/4/1 7/5/1 1/1/1
f 1/1/1 2/6/1 3/2/1
f 3/2/1 4/7/1 5/3/1
f 5/3/1 6/4/1 1/1/1
