# Blender v2.80 (sub 75) OBJ File: ''
# www.blender.org
v -1.000000 -0.000000 2.000000
v -2.000000 -0.000000 2.000000
v 0.000000 -0.000001 4.000000
v 2.000000 -0.000000 2.000000
v 1.000000 -0.000000 2.000000
v 1.000000 0.000000 -2.000000
v -1.000000 0.000000 -2.000000
vt 0.000000 0.000000
vt 0.000000 0.000000
vt 0.000000 0.000000
vt 0.000000 0.000000
vt 0.000000 0.000000
vt 0.000000 0.000000
vt 0.000000 0.000000
vn 0.0000 1.0000 0.0000
s 1
f 1/1/1 3/2/1 5/3/1
f 1/1/1 2/4/1 3/2/1
f 3/2/1 4/5/1 5/3/1
f 5/3/1 6/6/1 7/7/1
f 7/7/1 1/1/1 5/3/1
